<svg width="1440" height="87" viewBox="0 0 1440 87" fill="none" xmlns="http://www.w3.org/2000/svg">
<path fill-rule="evenodd" clip-rule="evenodd" d="M0 77.383L17 64.4113C34 51.4396 69 25.7198 103 25.7198C137 25.7198 171 51.4396 206 59.491C240 67.5424 274 57.9255 309 53.2288C343 48.3085 377 48.3085 411 40.2571C446 32.2057 480 16.1028 514 19.2339C549 22.5887 583 45.1774 617 53.2288C651 61.2802 686 54.7943 720 57.9255C754 61.2802 789 74.0283 823 77.383C857 80.5141 891 74.0283 926 64.4113C960 54.7943 994 41.8226 1029 46.7429C1063 51.4396 1097 74.0283 1131 80.5141C1166 87 1200 77.383 1234 67.5424C1269 57.9255 1303 48.3085 1337 51.4396C1371 54.7943 1406 70.8972 1423 78.9486L1440 87V0H1423C1406 0 1371 0 1337 0C1303 0 1269 0 1234 0C1200 0 1166 0 1131 0C1097 0 1063 0 1029 0C994 0 960 0 926 0C891 0 857 0 823 0C789 0 754 0 720 0C686 0 651 0 617 0C583 0 549 0 514 0C480 0 446 0 411 0C377 0 343 0 309 0C274 0 240 0 206 0C171 0 137 0 103 0C69 0 34 0 17 0H0V77.383Z" fill="#C7B1A4"/>
</svg>
