<svg width="611" height="111" viewBox="0 0 611 111" fill="none" xmlns="http://www.w3.org/2000/svg">
<path fill-rule="evenodd" clip-rule="evenodd" d="M337.493 0.696875C412.174 3.54143 333.225 23.2244 384.998 32.6959C506.263 30.0244 573.978 39.5288 595.784 47.9492C618.443 56.699 614.925 67.2101 590.929 75.8589C568.271 84.0254 533.2 91.7967 491.565 97.4813C446.586 103.622 395.292 109.696 337.493 110.461C279.269 111.232 247.861 88.4459 197.589 83.4556C140.233 77.762 54.2191 89.0583 22.6501 79.208C-10.5315 68.8546 -1.24754 55.9213 21.5015 44.8022C43.9994 33.8059 74.4862 3.64264 171.866 19.3381C256.384 22.3435 265.335 -2.05159 337.493 0.696875Z" fill="#C7B1A4"/>
</svg>
