<svg width="66" height="49" viewBox="0 0 66 49" fill="none" xmlns="http://www.w3.org/2000/svg">
<path fill-rule="evenodd" clip-rule="evenodd" d="M34.0252 6.28302C57 13.8267 58.3285 1.27596 64 4.06667C69.5907 6.8176 56.4884 23.1087 59 28.06C61.8642 33.7063 67.5 28.06 65 32.1267C63.2541 38.0008 57.9808 42.4111 51.1792 44.68C45.718 46.5016 39.8916 45.6648 34.0252 46.1121C27.3237 46.623 19.6929 50.9099 14.3994 47.4842C9.06345 44.0312 13.5907 36.5651 11.1909 31.335C8.58045 25.6457 -0.182748 22.1892 0.00290579 16.1085C0.197225 9.74411 4.84613 2.49289 12.1358 0.387654C19.5619 -1.75696 26.192 5.66799 34.0252 6.28302Z" fill="#C7B1A4"/>
</svg>
